HIERARCHY
ROOT Hips
{
  OFFSET -213.699 104.721 0.752556
  CHANNELS 6 Xposition Yposition Zposition Zrotation Xrotation Yrotation
  JOINT RightUpLeg
  {
    OFFSET -8.9458 -8.66707 0.101652
    CHANNELS 3 Zrotation Xrotation Yrotation
    JOINT RightLeg
    {
      OFFSET 0 -44.4227 1.3727
      CHANNELS 3 Zrotation Xrotation Yrotation
      JOINT RightFoot
      {
        OFFSET 0.253549 -42.0924 -1.46059
        CHANNELS 3 Zrotation Xrotation Yrotation
        JOINT RightToes
        {
          OFFSET 0.04 -4.41509 8.4991
          CHANNELS 3 Zrotation Xrotation Yrotation
          End Site
          {
            OFFSET -0.08 -0.137448 9.77979
          }
        }
      }
    }
  }
  JOINT Spine
  {
    OFFSET 0 11.8905 0
    CHANNELS 3 Zrotation Xrotation Yrotation
    JOINT Spine1
    {
      OFFSET 0 25.6574 0.127663
      CHANNELS 3 Zrotation Xrotation Yrotation
      JOINT HEad
      {
        OFFSET 0 8.73416 0.011341
        CHANNELS 3 Zrotation Xrotation Yrotation
        End Site
        {
          OFFSET -0.29 12.7742 2.51395
        }
      }
      JOINT LeftShoulder1
      {
        OFFSET 8.99 -0.362252 -0.22
        CHANNELS 3 Zrotation Xrotation Yrotation
        JOINT LeftArm
        {
          OFFSET 10.2827 -0.00337999 0.322123
          CHANNELS 3 Zrotation Xrotation Yrotation
          JOINT LeftForeArm
          {
            OFFSET 26.2597 0.099144 -1.42434
            CHANNELS 3 Zrotation Xrotation Yrotation
            JOINT LeftHand
            {
              OFFSET 22.0902 0.085362 1.02216
              CHANNELS 3 Zrotation Xrotation Yrotation
              End Site
              {
                OFFSET 13.419 -0.6 1.50291
              }
            }
          }
        }
      }
      JOINT RightShoulder
      {
        OFFSET -8.99 -0.362252 -0.22
        CHANNELS 3 Zrotation Xrotation Yrotation
        JOINT RightArm
        {
          OFFSET -10.2827 -0.00338 0.322123
          CHANNELS 3 Zrotation Xrotation Yrotation
          JOINT RightForeArm
          {
            OFFSET -26.364 0.099144 -1.42434
            CHANNELS 3 Zrotation Xrotation Yrotation
            JOINT RightHand
            {
              OFFSET -22.0324 0.085362 1.02216
              CHANNELS 3 Zrotation Xrotation Yrotation
              End Site
              {
                OFFSET -13.3284 -0.6 1.50291
              }
            }
          }
        }
      }
    }
  }
  JOINT LeftUpLeg
  {
    OFFSET 8.9458 -8.66707 0.101652
    CHANNELS 3 Zrotation Xrotation Yrotation
    JOINT LeftLeg
    {
      OFFSET 0 -44.4227 1.3727
      CHANNELS 3 Zrotation Xrotation Yrotation
      JOINT LeftFoot
      {
        OFFSET -0.253549 -42.0924 -1.46059
        CHANNELS 3 Zrotation Xrotation Yrotation
        JOINT LeftToes
        {
          OFFSET -0.04 -4.41509 8.4991
          CHANNELS 3 Zrotation Xrotation Yrotation
          End Site
          {
            OFFSET 0.08 -0.047448 9.77979
          }
        }
      }
    }
  }
}
MOTION
Frames:	17
Frame Time:	0.0333333
-226.865 104.227 -56.1964 0.806959 0.133999 89.2554 2.08744 0.975362 -0.548095 -0.825255 9.67412 -10.2403 -4.6475 -5.12554 -0.0501343 0.0462048 0.000530889 0.662642 -4.71365 -0.00986061 -1.54684 3.44984 9.15293 -2.35557 0.136056 0.431085 -2.60478 -32.9647 -4.87034 15.9472 -79.183 -43.959 -37.9317 -172.925 63.776 175.407 10.6852 8.68183 -8.87504 30.0877 -1.50896 -8.27176 54.0781 -21.2799 20.213 11.7888 69.901 2.40792 -2.37821 9.77572 3.78696 -2.82475 -0.731836 0.43282 1.33359 8.95385 15.1168 5.19854 -5.45561 -0.0773728 -1.34059e-009 8.75198e-006 -1.45983e-008 
-226.843 104.233 -56.1747 0.808202 0.129102 89.307 2.10424 1.01101 -0.533885 -0.830998 9.63181 -10.2903 -4.57599 -5.0966 -0.050132 0.0462048 0.000530889 0.662642 -4.68717 0.684177 -1.40585 3.44234 7.9825 -2.20341 0.173925 1.07521 -2.89396 -33.2739 -4.83271 15.7553 -78.6196 -44.3583 -37.6225 -173.031 63.3771 175.561 10.7841 8.67855 -8.76972 30.8989 -1.68621 -8.65216 52.1901 -18.9903 19.5545 10.4466 67.1323 4.62887 -1.96138 9.81971 2.32448 -2.79375 -0.69961 0.455179 1.32099 8.92845 15.0289 5.19398 -5.44851 -0.0773719 -1.34059e-009 8.75198e-006 -1.45983e-008 
-226.821 104.228 -56.1531 0.810254 0.114765 89.3948 2.149 1.13024 -0.508192 -0.83067 9.444 -10.4794 -4.58121 -5.08963 -0.0501315 0.0462048 0.000530889 0.662642 -4.70173 0.477728 -1.39766 3.47106 8.1886 -2.20042 0.286473 1.08747 -2.721 -33.0251 -4.66505 15.4 -78.6828 -44.4751 -37.3127 -172.995 63.4987 175.545 10.8619 8.65021 -8.98445 30.798 -1.64191 -8.5454 51.5266 -16.3516 19.1576 8.86446 63.6474 7.00378 -1.45882 9.86154 0.52182 -2.76936 -0.707873 0.452123 1.34723 8.95832 14.9217 5.17064 -5.46892 -0.0773745 -1.34059e-009 8.75198e-006 -1.45983e-008 
-226.81 104.227 -56.1462 0.796785 0.134137 89.4508 2.12704 1.13085 -0.539697 -0.808988 9.43352 -10.4754 -4.67496 -5.08775 -0.0501313 0.0462048 0.000530889 0.662642 -4.55365 0.500536 -1.35657 3.00592 7.65211 -2.0286 0.64358 1.7538 -2.9572 -32.2746 -4.14038 14.2852 -78.3339 -45.2282 -36.0507 -172.897 63.8065 175.558 10.9732 8.59008 -9.51197 31.2255 -1.54241 -8.22094 51.3183 -17.1774 18.4163 8.8287 64.1733 6.87566 -1.61865 9.85113 0.939926 -2.7829 -0.708718 0.444963 1.33971 8.93019 14.9093 5.04727 -5.43483 -0.0773701 -1.34059e-009 8.75198e-006 -1.45983e-008 
-226.806 104.227 -56.141 0.675945 0.16568 89.457 2.0823 0.942465 -0.552986 -0.789339 9.54953 -10.4737 -4.60986 -5.1295 -0.0501346 0.0462048 0.000530889 0.662642 -4.5517 0.469758 -1.37338 3.02291 7.63291 -2.04749 0.593695 1.93224 -3.01754 -32.4042 -4.21061 14.4235 -78.1349 -45.1103 -36.0609 -172.852 64.028 175.345 10.8338 8.63045 -9.25532 31.2062 -1.52561 -8.17915 51.2489 -16.8826 18.4541 8.725 63.9836 7.0512 -1.50776 9.8579 0.99819 -2.83058 -0.844103 0.382339 1.36417 8.955 14.9473 5.21469 -5.4528 -0.0773725 -1.34059e-009 8.75198e-006 -1.45983e-008 
-226.791 104.228 -56.1296 0.643532 0.169629 89.5206 2.08135 0.913322 -0.555795 -0.787172 9.55926 -10.5157 -4.58454 -5.11318 -0.0501333 0.0462048 0.000530889 0.662642 -4.5949 0.271878 -1.37145 3.26251 8.23578 -2.10953 0.230913 1.59677 -2.85558 -32.6719 -4.41111 14.8631 -78.4405 -44.6387 -36.696 -172.941 63.7445 175.362 10.8543 8.62514 -9.28562 30.9238 -1.5541 -8.29149 51.5628 -16.6964 18.9248 8.57713 64.0013 7.21095 -1.4072 9.86254 0.865107 -2.82744 -0.863333 0.358351 1.36933 8.9301 14.8667 5.33788 -5.44364 -0.0773713 -1.34059e-009 8.75198e-006 -1.45983e-008 
-226.77 104.229 -56.1142 0.596278 0.17281 89.5628 2.11344 0.959892 -0.519311 -0.79826 9.40565 -10.6006 -4.65338 -5.07157 -0.0501301 0.0462048 0.000530889 0.662642 -4.53054 0.230048 -1.37364 3.05788 8.0227 -2.05738 0.280131 1.86792 -2.69395 -32.4201 -4.22403 14.4538 -78.2637 -45.0123 -36.1793 -172.926 63.7602 175.44 11.0066 8.5872 -9.49509 31.1587 -1.49145 -8.09323 51.4207 -16.9527 18.6184 8.52398 64.1614 7.22521 -1.41656 9.86222 0.855279 -2.80822 -0.922351 0.370042 1.36473 8.9784 14.777 5.36417 -5.46098 -0.0773735 -1.34059e-009 8.75198e-006 -1.45983e-008 
-226.759 104.231 -56.11 0.483515 0.200362 89.5985 2.06546 0.822021 -0.549629 -0.763906 9.43996 -10.587 -4.68858 -5.07251 -0.0501301 0.0462048 0.000530889 0.662642 -4.59355 0.0459357 -1.36519 3.31192 8.49111 -2.11581 0.186881 1.60217 -2.63048 -32.7074 -4.42937 14.8975 -78.4944 -44.6165 -36.7213 -172.951 63.7102 175.376 11.1198 8.57452 -9.47662 30.8327 -1.52234 -8.21698 51.6545 -16.6956 18.9997 8.49304 64.0672 7.28605 -1.44687 9.85997 1.00393 -2.86274 -1.01575 0.295893 1.40187 8.92006 14.8626 5.23205 -5.4138 -0.0773674 -1.34059e-009 8.75198e-006 -1.45983e-008 
-226.748 104.233 -56.1038 0.433286 0.245324 89.56 2.00897 0.729915 -0.586845 -0.751165 9.51749 -10.5207 -4.70765 -5.11587 -0.0501335 0.0462048 0.000530889 0.662642 -4.46883 0.202919 -1.27409 2.97513 7.89915 -1.92644 0.503975 2.1443 -2.46037 -32.3319 -4.15954 14.312 -78.2101 -45.2027 -35.9398 -172.849 64.0058 175.429 11.2487 8.5995 -9.00712 31.2252 -1.52207 -8.16745 51.2832 -16.8366 18.5989 8.68126 64.1679 7.09401 -1.62638 9.84975 1.07601 -2.91334 -0.996037 0.250844 1.40486 8.77656 14.9563 5.10573 -5.33667 -0.0773576 -1.34059e-009 8.75198e-006 -1.45983e-008 
-226.714 104.235 -56.0961 0.433242 0.268086 89.5676 1.99559 0.76135 -0.588709 -0.757728 9.50691 -10.5344 -4.71398 -5.13847 -0.0506913 0.0462048 0.000530889 0.662642 -4.54348 0.104946 -1.27492 3.30898 8.53706 -2.02752 0.255675 1.82653 -2.16266 -32.8628 -4.52586 15.1036 -78.4966 -44.576 -36.844 -172.923 63.8002 175.363 10.8446 8.66383 -8.85377 30.6944 -1.58052 -8.39188 51.7952 -16.7148 19.3653 8.93066 64.3129 6.81054 -1.59004 9.85201 1.02041 -2.9326 -0.984475 0.240786 1.41136 8.81805 14.9027 5.30984 -5.38042 -0.0773632 -1.34059e-009 8.75198e-006 -1.45983e-008 
-226.69 104.236 -56.088 0.405614 0.256917 89.6797 2.03718 0.797738 -0.559148 -0.773497 9.44053 -10.6691 -4.79948 -5.10575 -0.047181 0.0462048 0.000530889 0.662642 -4.51321 0.0253142 -1.3126 3.31516 8.55664 -2.06448 0.36314 2.22599 -2.1777 -32.7337 -4.42699 14.8878 -78.3157 -44.6672 -36.433 -172.889 63.9533 175.237 10.771 8.67869 -8.78731 30.6416 -1.50749 -8.20038 51.8345 -16.6903 19.2164 8.50466 64.1607 7.25908 -1.39481 9.86362 0.776551 -2.92686 -1.00943 0.221744 1.43513 8.79833 14.86 5.17808 -5.36677 -0.0773615 -1.34059e-009 8.75198e-006 -1.45983e-008 
-226.651 104.236 -56.0778 0.434792 0.303308 89.7103 2.00002 0.895429 -0.641818 -0.744869 9.41364 -10.4946 -5.04987 -5.11823 -0.0421151 0.0462048 0.000530889 0.662642 -4.59581 0.018231 -1.30706 3.35903 8.59656 -2.06675 0.369391 2.67512 -1.99394 -32.6744 -4.37265 14.7661 -78.3428 -44.7943 -36.3896 -172.911 63.8405 175.353 10.866 8.65226 -8.9549 30.6605 -1.46386 -8.07911 51.8586 -16.6919 19.1861 8.30883 64.078 7.4633 -1.28152 9.87004 0.686542 -2.97342 -0.906896 0.185136 1.44598 8.71189 14.8257 5.18335 -5.34475 -0.0773587 -1.34059e-009 8.75198e-006 -1.45983e-008 
-226.587 104.236 -56.0689 0.472703 0.378646 89.6015 1.87628 0.890321 -0.719964 -0.7563 9.49698 -10.4712 -4.65298 -5.22342 -0.0561177 0.0462048 0.000530889 0.662642 -4.65689 0.12417 -1.2422 3.31215 8.41197 -1.97863 0.474615 3.49716 -1.77695 -32.7104 -4.3824 14.7801 -78.2136 -44.8812 -36.3828 -172.977 63.5955 175.455 11.1943 8.59893 -9.09353 30.892 -1.52636 -8.22002 51.5965 -16.5688 19.2101 8.51692 64.0585 7.29233 -1.47245 9.85812 0.820658 -3.05647 -0.724433 0.145305 1.43655 8.50958 15.0081 5.10297 -5.28831 -0.0773516 -1.34059e-009 8.75198e-006 -1.45983e-008 
-226.536 104.233 -56.06 0.457607 0.413859 89.643 1.84908 0.913643 -0.748842 -0.752235 9.49261 -10.4671 -4.71679 -5.23996 -0.0553475 0.0462048 0.000530889 0.662642 -4.78725 0.0580961 -1.28515 3.49929 8.37342 -2.06304 0.234892 4.48754 -1.69795 -32.9121 -4.4924 15.0024 -78.0475 -44.7934 -36.4297 -172.989 63.597 175.362 11.0817 8.63114 -8.88562 30.7771 -1.47818 -8.10398 51.5648 -16.4952 19.1372 8.36622 64.0508 7.46532 -1.5082 9.85756 0.784921 -3.08115 -0.681444 0.124639 1.44076 8.46737 14.9486 5.09333 -5.3028 -0.0773534 -1.34059e-009 8.75198e-006 -1.45983e-008 
-226.52 104.228 -56.0539 0.452236 0.385255 89.714 1.89599 0.908387 -0.709211 -0.758951 9.52291 -10.595 -4.7701 -5.26074 -0.0552074 0.0462048 0.000530889 0.662642 -4.77298 -0.00934558 -1.32306 3.51569 8.3989 -2.10445 -0.12607 5.26754 -1.56553 -32.8474 -4.45745 14.9323 -78.1699 -44.8254 -36.4922 -172.949 63.7077 175.396 10.7146 8.70038 -8.61584 30.7629 -1.49924 -8.16275 51.5285 -16.2554 19.1695 8.05744 63.7252 7.84033 -1.30539 9.8686 0.729745 -3.05755 -0.711825 0.132459 1.45295 8.51924 14.8974 5.08847 -5.34149 -0.0773583 -1.34059e-009 8.75198e-006 -1.45983e-008 
-226.512 104.222 -56.0422 0.421613 0.355565 89.7315 1.9552 0.847382 -0.651869 -0.774575 9.58341 -10.6844 -4.80874 -5.28217 -0.0547853 0.0462048 0.000530889 0.662642 -4.7372 -0.0959042 -1.31939 3.51328 8.41966 -2.09746 -0.522314 6.46507 -1.42232 -32.81 -4.47966 14.9998 -78.4232 -44.7204 -36.7826 -173.071 63.2191 175.627 11.0745 8.60971 -9.1388 30.7472 -1.54792 -8.2967 51.5579 -16.1419 19.2524 8.15653 63.5891 7.76075 -1.38649 9.86335 0.72175 -3.00598 -0.76208 0.171704 1.44114 8.54881 14.901 4.86214 -5.36046 -0.0773607 -1.34059e-009 8.75198e-006 -1.45983e-008 
-226.491 104.219 -56.0126 0.495089 0.371278 89.7956 1.97356 0.933646 -0.662446 -0.802165 9.62188 -10.7066 -4.69905 -5.31773 -0.0544221 0.0462048 0.000530889 0.662642 -4.8966 -0.173537 -1.41326 3.70425 8.58591 -2.23554 -0.988219 8.00377 -0.868863 -32.8426 -4.56744 15.2142 -78.655 -44.5362 -37.1452 -173.161 62.8607 175.755 11.1712 8.53834 -9.80236 30.5681 -1.45069 -8.05501 51.7489 -16.1763 19.1461 7.8802 63.3627 8.03101 -1.3609 9.86296 0.738407 -2.99309 -0.648572 0.1894 1.4246 8.48814 14.843 4.65592 -5.31756 -0.0800613 -1.34059e-009 8.75198e-006 -1.45983e-008 
